<?xml version="1.0" encoding="UTF-8" standalone="no"?><!-- Generator: Gravit.io --><svg xmlns="http://www.w3.org/2000/svg" xmlns:xlink="http://www.w3.org/1999/xlink" style="isolation:isolate" viewBox="401.019 110.505 660.981 364.472" width="660.981pt" height="364.472pt"><defs><clipPath id="_clipPath_0H82N0wK1kljPzoFKFUtrzl5oh3NzjRg"><rect x="401.019" y="110.505" width="660.981" height="364.472"/></clipPath></defs><g clip-path="url(#_clipPath_0H82N0wK1kljPzoFKFUtrzl5oh3NzjRg)"><g><path d=" M 449.17 321.326 L 401.019 315.041 L 415.805 201.774 L 463.956 208.059 L 464.144 269.138 L 449.17 321.326 Z " fill="rgb(56,73,73)"/><g><path d=" M 713.367 298.215 L 716.047 340.246 L 749.937 361.948 L 765.53 305.024 L 765.072 246.006 L 726.741 258.282 L 713.367 298.215 Z " fill="rgb(74,105,111)"/><path d=" M 803.403 233.73 L 765.072 246.006 L 749.937 361.948 L 783.839 383.655 L 801.249 312.759 L 803.403 233.73 Z " fill="rgb(56,73,73)"/></g><path d=" M 806.925 206.75 L 831 209.893 L 804.386 413.774 L 780.311 410.631 L 806.925 206.75 Z " fill="rgb(41,57,57)"/><path d=" M 482.326 348.694 L 476.412 394.001 L 560.676 405.001 L 571.658 383.395 L 566.59 359.694 L 525.444 346.643 L 482.326 348.694 Z " fill="rgb(56,73,73)"/><path d=" M 605.293 357.066 L 566.59 359.694 L 560.676 405.001 L 644.939 416 L 650.853 370.693 L 605.293 357.066 Z " fill="rgb(41,57,57)"/><path d=" M 526.608 197.038 L 515.063 191.691 L 523.935 123.731 L 596.161 133.159 L 598.695 145.009 L 593.204 155.812 L 545.053 149.527 L 539.139 194.834 L 526.608 197.038 Z " fill="rgb(56,73,73)"/><g><path d=" M 466.913 185.406 L 446.213 343.98 L 566.59 359.694 L 585.211 279.566 L 587.29 201.119 L 466.913 185.406 Z " fill="rgb(74,105,111)"/><path d=" M 587.29 201.119 L 731.742 219.975 L 711.042 378.55 L 566.59 359.694 L 587.29 201.119 Z " fill="rgb(56,73,73)"/></g><g><path d=" M 509.149 236.998 L 500.278 304.958 L 572.504 314.387 L 584.965 281.454 L 581.375 246.426 L 509.149 236.998 Z " fill="rgb(102,153,255)"/><path d=" M 581.375 246.426 L 629.526 252.712 L 620.655 320.672 L 572.504 314.387 L 581.375 246.426 Z " fill="rgb(44,135,244)"/></g><path d=" M 674.51 189.465 L 590.247 178.466 L 599.118 110.505 L 683.382 121.505 C 703.295 124.104 717.505 141.463 715.059 160.199 C 712.613 178.935 694.424 192.065 674.51 189.465 Z " fill="rgb(74,105,111)"/><path d=" M 647.687 301.161 L 671.762 304.304 L 668.805 326.957 L 644.73 323.815 L 647.687 301.161 Z " fill="rgb(118,226,248)"/><path d=" M 653.601 255.854 L 677.677 258.997 L 674.72 281.65 L 650.644 278.508 L 653.601 255.854 Z " fill="rgb(255,187,51)"/></g><path d=" M 985.193 429.905 C 975.815 429.905 966.825 430.259 958.51 430.905 C 929.273 433.176 908.385 439.068 908.385 445.962 C 908.385 447.894 910.058 449.805 913.279 451.6 C 914.739 452.414 916.518 453.204 918.603 453.961 C 918.717 454.009 918.841 454.054 918.976 454.1 L 919.125 454.15 C 919.662 454.339 920.244 454.534 920.856 454.73 L 937.971 460.463 L 977.993 473.869 C 979.543 474.389 982.264 474.705 985.193 474.705 C 988.121 474.705 990.842 474.389 992.393 473.869 L 1007.652 468.758 L 1020.489 464.457 L 1049.529 454.73 C 1050.142 454.534 1050.723 454.339 1051.26 454.15 L 1051.409 454.1 C 1051.544 454.054 1051.667 454.009 1051.781 453.962 C 1058.468 451.533 1062 448.77 1062 445.962 C 1062 443.852 1060.039 441.836 1056.483 439.988 C 1045.121 434.083 1017.449 429.905 985.193 429.905" fill="rgb(95,184,126)" fill-opacity="0.15"/><path d=" M 985.193 260.683 C 975.815 260.683 966.825 262.376 958.51 265.465 C 965.134 290.475 971.985 315.094 978.925 339.859 C 1004.869 329.747 1030.646 319.344 1056.483 308.913 C 1045.121 280.673 1017.449 260.683 985.193 260.683" fill="rgb(113,196,142)"/><path d=" M 908.385 337.49 C 908.385 346.733 910.058 355.874 913.279 364.462 C 935.377 356.588 957.208 348.323 978.925 339.859 C 971.985 315.094 965.134 290.475 958.51 265.465 C 929.273 276.331 908.385 304.516 908.385 337.49 Z " fill="rgb(95,185,127)"/><path d=" M 978.925 339.859 C 957.208 348.323 935.377 356.588 913.279 364.462 C 914.739 368.354 916.518 372.133 918.603 375.755 C 918.717 375.981 918.841 376.201 918.976 376.416 L 919.126 376.656 C 919.662 377.559 920.244 378.491 920.856 379.43 L 937.971 406.854 C 959.175 411.354 980.353 416.097 1001.413 421.214 C 998.478 409.719 995.383 398.216 992.034 386.714 C 987.652 370.939 983.273 355.37 978.925 339.859" fill="rgb(113,196,142)"/><path d=" M 1056.483 308.913 C 1030.646 319.344 1004.869 329.747 978.925 339.859 C 983.273 355.37 987.652 370.939 992.034 386.714 C 995.383 398.216 998.478 409.719 1001.413 421.214 C 1007.784 422.762 1014.143 424.341 1020.489 425.961 L 1049.529 379.43 C 1050.142 378.491 1050.723 377.559 1051.26 376.656 L 1051.409 376.416 C 1051.544 376.202 1051.667 375.981 1051.781 375.758 C 1058.468 364.144 1062 350.923 1062 337.49 C 1062 327.395 1060.039 317.751 1056.483 308.913" fill="rgb(132,205,156)"/><path d=" M 1020.489 425.961 C 1014.143 424.341 1007.784 422.762 1001.413 421.214 C 1003.57 429.658 1005.639 438.099 1007.652 446.531 L 1020.489 425.961 Z " fill="rgb(95,185,127)"/><path d=" M 1001.413 421.214 C 980.353 416.097 959.175 411.354 937.971 406.854 L 977.993 470.983 C 979.543 473.467 982.264 474.977 985.193 474.977 C 988.121 474.977 990.842 473.467 992.393 470.983 L 1007.652 446.531 C 1005.639 438.099 1003.57 429.658 1001.413 421.214 Z " fill="rgb(132,205,156)"/><path d=" M 991.908 386.258 C 971.684 385.381 955.325 369.604 953.534 349.63 C 962.021 346.411 970.482 343.15 978.925 339.859 L 978.925 339.859 L 978.925 339.859 C 983.231 355.22 987.568 370.638 991.908 386.258 Z " fill="rgb(102,180,122)"/><path d=" M 993.685 386.296 C 993.09 386.296 992.496 386.283 991.908 386.258 C 987.568 370.638 983.231 355.22 978.925 339.859 L 978.925 339.859 C 994.529 333.777 1010.072 327.59 1025.604 321.354 C 1030.867 328.166 1033.999 336.709 1033.999 345.982 C 1033.999 352.489 1032.448 358.63 1029.71 364.071 C 1023.08 377.249 1009.442 386.296 993.685 386.296" fill="rgb(120,189,136)"/><path d=" M 1025.507 337.49 C 1025.507 315.226 1007.458 297.176 985.193 297.176 C 966.587 297.176 950.934 309.784 946.288 326.92 C 971.9 334.951 996.949 344.03 1021.218 355.58 C 1023.956 350.138 1025.507 343.998 1025.507 337.49 Z " fill="rgb(247,235,197)"/><path d=" M 946.288 326.92 C 945.375 330.29 944.879 333.831 944.879 337.49 C 944.879 359.755 962.928 377.804 985.193 377.804 C 1000.951 377.804 1014.588 368.757 1021.218 355.58 C 996.949 344.03 971.9 334.951 946.288 326.92" fill="rgb(242,216,149)"/></g></svg>